<svg id="Layer_1" data-name="Layer 1" xmlns="http://www.w3.org/2000/svg" viewBox="0 0 514.83 120.44"><defs><style>.cls-1{fill:#e21f26;}.cls-2{fill:#19b4e9;}.cls-3{fill:#f78e20;}.cls-4{fill:#8ec640;}.cls-5{fill:#1e417c;}</style></defs><path class="cls-1" d="M36.47,49.92a6.25,6.25,0,0,0,2.27,4.53,40.93,40.93,0,0,0,5.61,4.36q3.34,2.2,7.34,4.65A51.32,51.32,0,0,1,59,68.9a29.65,29.65,0,0,1,5.61,6.68,15.92,15.92,0,0,1,2.27,8.48V95.75a16.85,16.85,0,0,1-1.79,7.94,16.35,16.35,0,0,1-4.77,5.61,20.56,20.56,0,0,1-6.93,3.28,32.86,32.86,0,0,1-16.71,0,19.94,19.94,0,0,1-6.86-3.28,16,16,0,0,1-4.66-5.61,17.33,17.33,0,0,1-1.73-7.94v-9h5.73A6.94,6.94,0,0,1,34,88.29a5.52,5.52,0,0,1,1.61,4.24v5.13a4.5,4.5,0,0,0,.89,2.75,8.1,8.1,0,0,0,2.27,2,12.24,12.24,0,0,0,3,1.31,11.71,11.71,0,0,0,3.23.48,10.5,10.5,0,0,0,3.22-.54,13.69,13.69,0,0,0,3.1-1.43,8,8,0,0,0,2.33-2.15,4.71,4.71,0,0,0,.9-2.81V84.65a10.58,10.58,0,0,0-2.21-6.74,24.75,24.75,0,0,0-5.55-5.07q-3.34-2.28-7.22-4.48a58.3,58.3,0,0,1-7.23-4.83,24.22,24.22,0,0,1-5.55-6.15,15.77,15.77,0,0,1-2.2-8.54V40.37a19.54,19.54,0,0,1,1.55-8.18,15,15,0,0,1,4.29-5.61A17.63,17.63,0,0,1,37,23.36a30.49,30.49,0,0,1,8.12-1,28,28,0,0,1,8.17,1.14,19.78,19.78,0,0,1,6.57,3.34,14.89,14.89,0,0,1,4.36,5.61,19,19,0,0,1,1.55,7.94V49.2H60.35a7.06,7.06,0,0,1-5-1.91,6.28,6.28,0,0,1-2-4.77V38.1a4,4,0,0,0-.83-2.51,6.53,6.53,0,0,0-2.09-1.73,10.51,10.51,0,0,0-2.75-1,13.72,13.72,0,0,0-2.68-.3A11.3,11.3,0,0,0,42.2,33,11.46,11.46,0,0,0,39.46,34a7.21,7.21,0,0,0-2.15,1.73,3.55,3.55,0,0,0-.84,2.33Z" transform="translate(-23.46 -22.34)"/><path class="cls-2" d="M120.87,24.43A6.53,6.53,0,0,1,122,28.67V38.94H115.5a3.23,3.23,0,0,1-2.62-1.14,4.54,4.54,0,0,1-1-3c0-1-.44-1.55-1.31-1.55h-5.85a1.85,1.85,0,0,0-1.25.47,2,2,0,0,0-.54,1.56v66a2.85,2.85,0,0,0,.36,1.67,5.35,5.35,0,0,0,1,1,8.22,8.22,0,0,1,1.85,2,5.79,5.79,0,0,1,.9,3.34v3.46H87.21v-3.46a5.53,5.53,0,0,1,1-3.34,9.2,9.2,0,0,1,1.91-2,7.89,7.89,0,0,0,.83-1,2.85,2.85,0,0,0,.36-1.67V34.88a1.45,1.45,0,0,0-.59-1.26,2.14,2.14,0,0,0-1.2-.41H84.23a2.5,2.5,0,0,0-1.13.35,1.37,1.37,0,0,0-.66,1.32,4,4,0,0,1-1.08,3q-1.06,1-3.93,1H71.94V28.19c0-1.83.49-3.12,1.49-3.88A7.6,7.6,0,0,1,78,23.18h38.92C118.85,23.18,120.16,23.6,120.87,24.43Z" transform="translate(-23.46 -22.34)"/><path class="cls-3" d="M143.38,33.86a1.76,1.76,0,0,0-.53,1.26V60.06c0,1.12.59,1.67,1.79,1.67h14.2a2.36,2.36,0,0,1,1.26.42,1.53,1.53,0,0,1,.65,1.38v6.68c0,1.11-.59,1.67-1.79,1.67H144.64c-1.2,0-1.79.56-1.79,1.67v27.81c0,1.12.48,1.67,1.43,1.67h11.94c.87,0,1.31-.51,1.31-1.55a3.39,3.39,0,0,1,1.61-3,7.75,7.75,0,0,1,4.36-1.08H168v12.3a2.81,2.81,0,0,1-.89,2.15,3.14,3.14,0,0,1-2.21.83H127.09v-3.1a9.55,9.55,0,0,1,.66-4,4.09,4.09,0,0,1,1.85-2,2.69,2.69,0,0,0,1.55-2.51v-66a2.62,2.62,0,0,0-.48-1.68,4.16,4.16,0,0,0-1.07-.95,4.09,4.09,0,0,1-1.85-1.91,8.39,8.39,0,0,1-.66-3.7V23.42h37.84a3.09,3.09,0,0,1,2.27.83A2.55,2.55,0,0,1,168,26V38.7h-4.41a12,12,0,0,1-4.24-.66,2.6,2.6,0,0,1-1.73-2.69,2.83,2.83,0,0,0-.36-1.37,1.37,1.37,0,0,0-1.31-.65H144.52A1.59,1.59,0,0,0,143.38,33.86Z" transform="translate(-23.46 -22.34)"/><path class="cls-4" d="M246.67,30.4a8,8,0,0,1-1.37,2,5.82,5.82,0,0,1-2,1.19v67.21a2.89,2.89,0,0,0,.36,1.67,3.23,3.23,0,0,0,1,.83,9.68,9.68,0,0,1,1.91,2,6,6,0,0,1,1,3.58v3.82H227.87v-3.94a5.53,5.53,0,0,1,1-3.34,9.43,9.43,0,0,1,1.91-2,3.53,3.53,0,0,0,.95-.83,2.89,2.89,0,0,0,.36-1.67V52.07a.51.51,0,0,0-.3-.42q-.3-.18-.54.42-4.41,7.88-7.88,14.32-1.54,2.74-3,5.43c-.95,1.79-1.83,3.44-2.62,5s-1.48,2.79-2,3.82a20.87,20.87,0,0,0-1,1.91,2.43,2.43,0,0,1-1.49,1.26,7.86,7.86,0,0,1-5,0,2.55,2.55,0,0,1-1.5-1.14c-.16-.24-.49-.87-1-1.91s-1.18-2.28-2-3.76-1.69-3.12-2.69-5-2-3.66-2.92-5.49q-3.47-6.57-7.76-14.44-.12-.24-.3-.24t-.18.48v48.93a3.31,3.31,0,0,0,.3,1.67,2.62,2.62,0,0,0,.9.84,10,10,0,0,1,1.91,2,5.59,5.59,0,0,1,.95,3.34v3.58H174v-3.58a5.52,5.52,0,0,1,1-3.34,9.68,9.68,0,0,1,1.91-2,3.3,3.3,0,0,0,1-.84,2.85,2.85,0,0,0,.36-1.67V33.56a4.57,4.57,0,0,1-2-1.19,5.85,5.85,0,0,1-1.44-2,7.64,7.64,0,0,1-.59-3.28v-3.7h12.41a2.84,2.84,0,0,1,1.49.48,2.8,2.8,0,0,1,1.14,1.31c.55,1.35,1.43,3.28,2.62,5.79s2.55,5.27,4.06,8.29,3.08,6.11,4.72,9.25,3.14,6,4.53,8.66,2.55,4.81,3.46,6.56a23.73,23.73,0,0,0,1.62,2.87c.15.4.33.56.53.48a1.21,1.21,0,0,0,.54-.48,16.94,16.94,0,0,1,1-1.91c.68-1.19,1.52-2.79,2.51-4.78s2.15-4.21,3.46-6.68,2.65-5,4-7.52L233,25.21a2.71,2.71,0,0,1,1.2-1.43,3.64,3.64,0,0,1,1.67-.36h11.46v3.7A7,7,0,0,1,246.67,30.4Z" transform="translate(-23.46 -22.34)"/><path class="cls-5" d="M271,61.85a6.36,6.36,0,0,0-3.1.66A5.87,5.87,0,0,0,266,64.12a5.24,5.24,0,0,0-1,2.09,10.16,10.16,0,0,0-.24,2.09v-.12a6,6,0,0,0,1.91,4.48,22,22,0,0,0,4.72,3.4c1.87,1,3.89,2.07,6.08,3.1a41.94,41.94,0,0,1,6.09,3.52,20.84,20.84,0,0,1,4.72,4.54,10.22,10.22,0,0,1,1.91,6.27v3.1q0,8.23-5,12.41t-13.43,4.18q-8.7,0-14.14-3.76c-3.62-2.51-5.43-6.34-5.43-11.52V90.38h5.37q3.47,0,4.83,1.08c.92.71,1.38,2.23,1.38,4.53v.24a9.2,9.2,0,0,0,1.43,5.25q1.43,2.14,6,2.15t6-2.15a9.15,9.15,0,0,0,1.5-5.37V94.92a4.32,4.32,0,0,0-1.85-3.4,28.92,28.92,0,0,0-4.72-3l-6.09-3.16A38.76,38.76,0,0,1,260,81.43a20,20,0,0,1-4.72-5.31,13.91,13.91,0,0,1-1.85-7.34V65.91q0-6.67,4.84-10a20.86,20.86,0,0,1,12.11-3.34,28.61,28.61,0,0,1,8.89,1.2A15.81,15.81,0,0,1,285.21,57,12.21,12.21,0,0,1,288.5,62a18.64,18.64,0,0,1,1,6.21V74H285a14.36,14.36,0,0,1-5.19-.78q-2-.77-2-4.59a7.51,7.51,0,0,0-1.67-4.6A6,6,0,0,0,271,61.85Z" transform="translate(-23.46 -22.34)"/><path class="cls-5" d="M321.68,69.37a8.09,8.09,0,0,0-1.85-5.25,6.22,6.22,0,0,0-5.08-2.27,6.41,6.41,0,0,0-5.19,2.21,9.13,9.13,0,0,0-1.85,6V95.51q0,4.78,1.85,6.51a7.33,7.33,0,0,0,5.19,1.73,6.77,6.77,0,0,0,5.08-1.91q1.85-1.91,1.85-6.09v-.12q0-5.61,6.44-5.61H333V97q0,7.88-4.84,12t-13.43,4.18q-8.94,0-13.66-4.42t-4.72-13.48V70.45q0-9.2,4.72-13.61t13.66-4.42a22,22,0,0,1,7.7,1.26,16.9,16.9,0,0,1,5.73,3.4,14.64,14.64,0,0,1,3.58,5A15,15,0,0,1,333,68.18v6.09h-4.9Q321.68,74.27,321.68,69.37Z" transform="translate(-23.46 -22.34)"/><path class="cls-5" d="M375.76,62.39a15,15,0,0,0-3.82-5.13,18.3,18.3,0,0,0-6-3.46,22.56,22.56,0,0,0-7.76-1.26q-8.94,0-14,4.48t-5,13.67V94.8q0,9.2,5,13.84t14,4.66q8.6,0,13.73-4.48t5.13-12.23v-28A14.77,14.77,0,0,0,375.76,62.39Zm-10,33.24q0,4.07-2.14,6.09a7.52,7.52,0,0,1-5.38,2,8.11,8.11,0,0,1-5.49-1.85q-2.14-1.84-2.14-6.5V70.21q0-4.77,2-6.51A8,8,0,0,1,358,62a8.63,8.63,0,0,1,5.5,1.79q2.26,1.8,2.26,6.93Z" transform="translate(-23.46 -22.34)"/><path class="cls-5" d="M420.12,57.2q-3.71-4.66-12.66-4.66a17.23,17.23,0,0,0-7.22,1.26A14.17,14.17,0,0,0,397,55.65a3.52,3.52,0,0,0-.24-1.32,3.2,3.2,0,0,0-.71-.89,1.94,1.94,0,0,0-1.32-.42H381.56V56.6a6.54,6.54,0,0,0,.9,3.64,6.22,6.22,0,0,0,1.85,2,3,3,0,0,1,.95.9,2.89,2.89,0,0,1,.36,1.61V131a2.38,2.38,0,0,1-.42,1.49,6.43,6.43,0,0,1-1,1,5.94,5.94,0,0,0-1.79,1.91,6.11,6.11,0,0,0-.84,3.34v4.06H401v-3.46a6.24,6.24,0,0,0-.9-3.58,8.22,8.22,0,0,0-1.85-2,3.38,3.38,0,0,1-.95-.83,2.9,2.9,0,0,1-.36-1.68V110a17.79,17.79,0,0,0,4.12,2.39,15.38,15.38,0,0,0,5.55.83q9,0,13.07-5.31t4.12-14.5V71Q423.82,61.86,420.12,57.2Zm-7.64,36.88c0,3.19-.62,5.51-1.85,7a6.42,6.42,0,0,1-5.19,2.2,12.1,12.1,0,0,1-3.76-.53,11.25,11.25,0,0,1-2.69-1.26,5.48,5.48,0,0,1-2-1.79V64.36a12.52,12.52,0,0,1,2.27-1.55,15.13,15.13,0,0,1,2.45-1.08,9.37,9.37,0,0,1,3-.47,6.92,6.92,0,0,1,5.37,2.38c1.43,1.6,2.23,4,2.39,7.17Z" transform="translate(-23.46 -22.34)"/><path class="cls-5" d="M460.53,85.37q7.89,0,7.88-6V71.76q0-9.2-5-14.2t-13.85-5q-9,0-14,5t-5,14.2V95.4q0,9.06,5,13.48t14,4.42q8.71,0,13.79-3.52t5.07-11.28v-8h-4.89a5.91,5.91,0,0,0-4.84,2,7.24,7.24,0,0,0-1.61,4.72v.47a5.29,5.29,0,0,1-1.91,4.48,7.82,7.82,0,0,1-5.25,1.73,10.66,10.66,0,0,1-5.67-1.43q-2.33-1.44-2.33-6.21V85.37ZM441.91,71.16q0-4.65,2.15-6.92A7.23,7.23,0,0,1,449.55,62a7.09,7.09,0,0,1,5.37,2.27c1.44,1.51,2.15,3.82,2.15,6.92v6.09H441.91Z" transform="translate(-23.46 -22.34)"/><path class="cls-5" d="M493.36,61.85a6.41,6.41,0,0,0-3.11.66,5.93,5.93,0,0,0-1.9,1.61,5.24,5.24,0,0,0-1,2.09,10.16,10.16,0,0,0-.24,2.09v-.12a6,6,0,0,0,1.91,4.48,21.79,21.79,0,0,0,4.72,3.4c1.86,1,3.89,2.07,6.08,3.1A41.94,41.94,0,0,1,506,82.68a20.84,20.84,0,0,1,4.72,4.54,10.22,10.22,0,0,1,1.91,6.27v3.1q0,8.23-5,12.41t-13.43,4.18q-8.71,0-14.14-3.76c-3.62-2.51-5.43-6.34-5.43-11.52V90.38H480q3.47,0,4.83,1.08c.92.71,1.38,2.23,1.38,4.53v.24a9.2,9.2,0,0,0,1.43,5.25q1.42,2.14,6,2.15t6-2.15a9.15,9.15,0,0,0,1.5-5.37V94.92a4.32,4.32,0,0,0-1.85-3.4,28.92,28.92,0,0,0-4.72-3l-6.09-3.16a38.76,38.76,0,0,1-6.08-3.94,20,20,0,0,1-4.72-5.31,13.91,13.91,0,0,1-1.85-7.34V65.91q0-6.67,4.83-10a20.91,20.91,0,0,1,12.12-3.34,28.61,28.61,0,0,1,8.89,1.2A15.81,15.81,0,0,1,507.56,57,12.09,12.09,0,0,1,510.84,62a18.39,18.39,0,0,1,1,6.21V74h-4.54a14.32,14.32,0,0,1-5.19-.78q-2-.77-2-4.59a7.58,7.58,0,0,0-1.67-4.6A6,6,0,0,0,493.36,61.85Z" transform="translate(-23.46 -22.34)"/><polygon class="cls-5" points="496.1 33.08 496.1 44.34 494.12 44.34 494.12 33.08 491.11 33.08 491.11 31.22 499.11 31.22 499.11 33.08 496.1 33.08"/><polygon class="cls-5" points="500.42 44.34 503.18 30.23 507.68 40.43 512.35 30.23 514.83 44.34 512.8 44.34 511.53 36.42 507.65 44.94 503.87 36.41 502.46 44.34 500.42 44.34"/></svg>